<?xml version="1.0" standalone="no"?>
<!DOCTYPE svg PUBLIC "-//W3C//DTD SVG 20010904//EN"
    "http://www.w3.org/TR/2001/REC-SVG-20010904/DTD/svg10.dtd">
<svg version="1.0" xmlns="http://www.w3.org/2000/svg"
     width="200.000000pt" height="200.000000pt" viewBox="0 0 200.000000 200.000000"
     preserveAspectRatio="xMidYMid meet">

    <g transform="translate(0.000000,200.000000) scale(0.100000,-0.100000)"
       fill="#FAFAFA" stroke="none">
        <path d="M495 1282 l-80 -17 -3 -39 c-2 -27 2 -44 16 -60 11 -11 27 -48 37
-81 44 -156 87 -190 235 -190 72 0 91 4 123 24 52 32 91 88 117 167 21 63 23
65 52 62 28 -3 33 -9 55 -70 48 -129 122 -181 260 -180 54 0 73 5 111 29 55
34 77 68 104 165 11 40 26 80 34 89 8 8 14 29 14 46 0 27 -4 32 -42 42 -144
38 -221 40 -375 10 -119 -23 -208 -22 -343 5 -97 19 -215 19 -315 -2z m356
-49 l54 -28 0 -55 c-1 -71 -33 -139 -88 -182 -39 -32 -45 -33 -128 -33 -84 0
-89 1 -119 30 -19 19 -38 52 -50 93 -49 157 -10 199 186 201 80 1 97 -2 145
-26z m579 5 c56 -29 65 -58 44 -148 -27 -119 -70 -160 -170 -160 -108 0 -184
56 -217 161 -22 68 -21 83 6 114 30 35 100 53 207 54 70 1 94 -3 130 -21z"/>
        <path d="M550 850 c0 -5 5 -10 10 -10 6 0 10 -8 10 -18 0 -15 -6 -18 -29 -14
-20 3 -35 -2 -50 -17 -25 -25 -27 -49 -6 -78 12 -18 25 -21 70 -21 30 0 55 5
55 9 0 5 -4 9 -10 9 -6 0 -10 32 -10 75 0 68 -2 75 -20 75 -11 0 -20 -4 -20
-10z m18 -88 c7 -47 -47 -72 -68 -32 -16 31 4 62 38 58 19 -2 28 -10 30 -26z"/>
        <path d="M1134 839 c-23 -12 -44 -49 -44 -78 0 -10 9 -30 21 -45 22 -28 56
-34 90 -16 30 16 22 30 -10 17 -36 -13 -59 -4 -71 29 -22 56 42 113 72 65 17
-28 28 -26 28 4 0 14 -6 25 -12 25 -7 0 -22 2 -33 5 -11 2 -30 -1 -41 -6z"/>
        <path d="M10 825 c8 -10 11 -36 8 -75 -4 -57 -3 -60 18 -60 13 0 26 5 29 10 3
6 -1 10 -9 10 -12 0 -16 11 -16 45 0 25 2 45 4 45 2 0 18 -25 35 -55 17 -30
35 -55 40 -55 5 0 11 34 13 75 l3 75 -30 0 c-28 -1 -29 -2 -12 -14 13 -10 17
-25 15 -53 l-3 -38 -30 52 c-23 41 -36 53 -54 53 -20 0 -21 -2 -11 -15z"/>
        <path d="M680 810 c0 -32 14 -40 24 -14 10 27 7 44 -9 44 -10 0 -15 -10 -15
-30z"/>
        <path d="M185 796 c-25 -18 -25 -74 0 -92 24 -18 66 -18 91 0 17 13 15 14 -31
13 -40 -2 -50 1 -53 16 -3 14 4 17 47 17 38 0 51 4 51 14 0 40 -67 60 -105 32z
m75 -21 c0 -10 -11 -15 -35 -15 -33 0 -43 8 -28 23 13 14 63 7 63 -8z"/>
        <path d="M330 800 c0 -5 5 -10 10 -10 6 0 10 -18 10 -40 0 -29 -4 -40 -15 -40
-8 0 -15 -4 -15 -10 0 -5 23 -10 50 -10 28 0 50 5 50 10 0 6 -11 10 -25 10
-21 0 -25 5 -25 30 0 32 22 50 61 50 18 0 20 3 11 12 -9 9 -19 10 -42 1 -17
-6 -30 -7 -30 -2 0 5 -9 9 -20 9 -11 0 -20 -4 -20 -10z"/>
        <path d="M802 793 c-15 -28 -3 -43 39 -49 23 -4 39 -12 39 -20 0 -17 -51 -19
-68 -2 -15 15 -26 4 -19 -17 8 -20 80 -20 97 0 17 20 8 49 -15 53 -64 9 -69
12 -52 29 14 15 18 15 41 0 25 -17 44 -8 31 13 -11 18 -83 12 -93 -7z"/>
        <path d="M1266 791 c-42 -46 10 -117 71 -95 64 22 48 114 -21 114 -20 0 -40
-8 -50 -19z m88 -23 c14 -23 -3 -52 -33 -56 -42 -6 -67 38 -39 66 17 17 58 11
72 -10z"/>
        <path d="M1410 800 c0 -5 7 -10 15 -10 11 0 15 -11 15 -40 0 -29 -4 -40 -15
-40 -8 0 -15 -4 -15 -10 0 -5 20 -10 44 -10 25 0 48 5 51 10 4 6 -5 10 -19 10
-22 0 -26 5 -26 28 0 34 16 52 47 52 13 0 23 5 23 10 0 14 -43 13 -58 -2 -9
-9 -12 -9 -12 0 0 7 -11 12 -25 12 -14 0 -25 -4 -25 -10z"/>
        <path d="M1560 799 c0 -5 5 -9 10 -9 6 0 10 -18 10 -40 0 -22 -4 -40 -10 -40
-5 0 -10 -4 -10 -10 0 -5 10 -10 23 -10 21 0 23 4 23 48 -1 42 1 47 23 50 23
4 24 2 19 -47 -5 -48 -4 -51 18 -51 25 0 30 9 15 25 -5 6 -11 28 -13 50 l-3
40 -52 1 c-29 1 -53 -2 -53 -7z"/>
        <path d="M1738 799 c-23 -13 -24 -72 -2 -93 19 -20 64 -21 90 -2 17 13 15 14
-31 13 -40 -2 -50 1 -53 16 -3 14 4 17 47 17 38 0 51 4 51 14 0 38 -62 59
-102 35z m80 -26 c2 -9 -9 -13 -37 -13 -39 0 -50 8 -34 24 11 11 66 2 71 -11z"/>
        <path d="M1880 800 c0 -5 5 -10 10 -10 6 0 10 -18 10 -40 0 -29 -4 -40 -15
-40 -8 0 -15 -4 -15 -10 0 -5 23 -10 50 -10 28 0 50 5 50 10 0 6 -11 10 -25
10 -21 0 -25 5 -25 30 0 31 22 50 59 50 12 0 21 5 21 10 0 13 -36 13 -61 0
-13 -7 -19 -7 -19 0 0 5 -9 10 -20 10 -11 0 -20 -4 -20 -10z"/>
        <path d="M629 528 c-5 -143 -5 -186 2 -205 14 -38 29 -26 29 22 0 35 4 45 16
45 13 0 15 -7 11 -30 -8 -36 0 -60 19 -60 19 0 23 30 21 139 -1 65 -6 96 -14
99 -9 2 -13 -9 -13 -36 0 -24 -6 -45 -16 -53 -23 -19 -33 4 -23 53 10 43 6 58
-17 58 -9 0 -14 -11 -15 -32z"/>
        <path d="M914 549 c-14 -23 -18 -75 -15 -201 1 -47 1 -48 34 -48 20 0 41 8 50
18 19 21 22 74 6 104 -8 15 -8 22 1 28 6 4 10 24 8 46 -3 35 -6 39 -33 42 -16
2 -33 8 -36 14 -4 6 -10 5 -15 -3z m46 -65 c0 -31 -23 -28 -28 4 -2 15 2 22
12 22 11 0 16 -9 16 -26z m-2 -76 c7 -7 12 -25 12 -40 0 -21 -5 -28 -20 -28
-17 0 -20 7 -20 40 0 41 7 49 28 28z"/>
        <path d="M1302 533 c-12 -15 -22 -34 -23 -43 -2 -66 -1 -181 2 -184 2 -2 21
-6 41 -9 47 -7 49 -1 53 132 3 95 2 104 -16 108 -10 3 -19 9 -19 14 0 17 -16
9 -38 -18z m43 -79 c1 -88 -5 -115 -23 -112 -11 2 -15 19 -16 73 -2 74 8 109
27 102 7 -2 12 -27 12 -63z"/>
        <path d="M1450 552 c0 -6 -8 -18 -17 -28 -14 -14 -18 -38 -20 -120 l-2 -102
40 -4 c59 -5 64 13 59 193 -1 34 -6 49 -18 53 -9 3 -23 9 -29 12 -7 3 -13 1
-13 -4z m28 -128 c-2 -64 -6 -79 -19 -82 -15 -3 -17 7 -15 75 1 43 5 84 10 91
17 28 27 -7 24 -84z"/>
        <path d="M312 535 c-13 -5 -26 -21 -30 -35 -7 -25 -7 -178 -1 -184 2 -2 18 -6
36 -9 30 -6 33 -4 62 50 33 60 30 73 -17 73 -20 0 -23 -4 -20 -37 2 -28 -1
-38 -12 -38 -12 0 -15 13 -13 69 2 38 5 71 8 74 3 3 12 -4 21 -16 8 -12 22
-22 30 -22 13 0 13 18 -1 66 -5 17 -37 21 -63 9z"/>
        <path d="M442 531 c-9 -5 -12 -37 -10 -110 2 -108 9 -134 29 -114 13 13 14 26
9 146 -3 79 -7 91 -28 78z"/>
        <path d="M500 519 c0 -12 7 -19 19 -19 18 0 19 -7 14 -95 -4 -79 -2 -95 10
-95 20 0 29 40 26 119 -2 52 1 66 12 66 8 0 14 9 14 20 0 17 -7 20 -47 22 -41
1 -48 -1 -48 -18z"/>
        <path d="M758 433 c-2 -60 -1 -114 1 -122 3 -10 17 -12 59 -8 30 3 55 7 56 9
5 6 -12 219 -17 225 -3 3 -10 2 -16 -2 -16 -9 -14 -152 2 -158 10 -4 10 -6 0
-6 -7 -1 -13 -10 -13 -21 0 -13 -7 -20 -20 -20 -19 0 -20 7 -20 105 0 85 -3
105 -14 105 -12 0 -15 -22 -18 -107z"/>
        <path d="M1548 508 c-3 -18 -4 -68 -3 -111 2 -80 10 -98 44 -92 9 2 19 4 24 4
14 2 7 51 -8 51 -12 0 -15 17 -15 90 0 82 -2 90 -19 90 -13 0 -20 -9 -23 -32z"/>
        <path d="M1667 533 c-3 -5 -8 -28 -12 -53 -6 -45 -6 -46 29 -63 30 -14 36 -22
36 -47 0 -37 -25 -41 -34 -5 -4 14 -13 25 -20 25 -17 0 -25 -39 -15 -66 4 -10
8 -15 8 -11 1 4 10 3 22 -3 13 -8 24 -8 32 -2 7 6 17 10 22 9 6 -1 11 21 13
49 3 46 0 52 -28 74 -30 23 -40 62 -20 75 6 3 10 0 10 -7 0 -8 6 -23 14 -33
13 -18 14 -18 25 4 20 37 5 61 -39 61 -21 0 -41 -3 -43 -7z"/>
        <path d="M1144 519 c-8 -13 5 -29 23 -29 13 0 14 -13 8 -95 -5 -81 -4 -95 9
-95 20 0 29 33 28 112 0 49 3 68 13 68 15 0 28 27 20 41 -7 11 -94 9 -101 -2z"/>
    </g>
</svg>
